<?xml version="1.0" encoding="UTF-8" standalone="no"?>
<svg
   height="24px"
   viewBox="0 -960 960 960"
   width="24px"
   fill="#ffffff"
   version="1.1"
   id="svg1"
   sodipodi:docname="object_new.svg"
   inkscape:export-filename="object_new.png"
   inkscape:export-xdpi="96"
   inkscape:export-ydpi="96"
   inkscape:version="1.3 (0e150ed6c4, 2023-07-21)"
   xmlns:inkscape="http://www.inkscape.org/namespaces/inkscape"
   xmlns:sodipodi="http://sodipodi.sourceforge.net/DTD/sodipodi-0.dtd"
   xmlns="http://www.w3.org/2000/svg"
   xmlns:svg="http://www.w3.org/2000/svg">
  <defs
     id="defs1" />
  <sodipodi:namedview
     id="namedview1"
     pagecolor="#000000"
     bordercolor="#666666"
     borderopacity="1.0"
     inkscape:showpageshadow="2"
     inkscape:pageopacity="0.0"
     inkscape:pagecheckerboard="0"
     inkscape:deskcolor="#d1d1d1"
     showgrid="true"
     inkscape:zoom="32"
     inkscape:cx="9.609375"
     inkscape:cy="15.046875"
     inkscape:window-width="1920"
     inkscape:window-height="1017"
     inkscape:window-x="-8"
     inkscape:window-y="-8"
     inkscape:window-maximized="1"
     inkscape:current-layer="svg1">
    <inkscape:grid
       id="grid1"
       units="px"
       originx="0"
       originy="0"
       spacingx="40"
       spacingy="40"
       empcolor="#0099e5"
       empopacity="0.30196078"
       color="#0099e5"
       opacity="0.14901961"
       empspacing="5"
       dotted="false"
       gridanglex="30"
       gridanglez="30"
       visible="true" />
  </sodipodi:namedview>
  <path
     d="m 480,-880 c -3.5,0 -6.97396,0.24479 -10.39063,0.70313 -3.41666,0.45833 -6.74479,1.11458 -10.07812,2.03125 -3.33333,0.91666 -6.67188,2.0625 -9.92188,3.4375 -3.24999,1.37499 -6.44271,3.01041 -9.60937,4.84375 l -280,161.01562 c -3.16666,1.83333 -6.17188,3.8125 -8.98438,5.9375 -2.81249,2.125 -5.43229,4.38021 -7.89062,6.79688 -2.45833,2.41666 -4.77084,4.94791 -6.875,7.65625 -2.10416,2.70833 -4.03125,5.59375 -5.78125,8.59375 -1.75,2.99999 -3.21875,6.05208 -4.53125,9.21875 -1.3125,3.16666 -2.40625,6.43229 -3.28125,9.76562 -0.875,3.33333 -1.59375,6.73438 -2.03125,10.23438 -0.4375,3.49999 -0.625,7.11458 -0.625,10.78125 v 317.96875 c 0,3.66666 0.1875,7.28125 0.625,10.78125 0.4375,3.49999 1.15625,6.90104 2.03125,10.23437 0.875,3.33333 1.96875,6.59896 3.28125,9.76563 1.3125,3.16666 2.78125,6.21875 4.53125,9.21875 1.75,2.99999 3.67709,5.88541 5.78125,8.59375 2.10416,2.70833 4.41667,5.23958 6.875,7.65625 2.45833,2.41666 5.07813,4.67187 7.89062,6.79687 2.8125,2.125 5.81772,4.10417 8.98438,5.9375 l 280,161.015625 c 3.16666,1.833331 6.35938,3.468751 9.60937,4.84375 3.25,1.374999 6.58855,2.520834 9.92188,3.4375 3.33333,0.916666 6.66146,1.572917 10.07812,2.03125 C 473.02604,-80.244792 476.5,-80 480,-80 c 3.5,0 6.97396,-0.244792 10.39062,-0.703125 3.41667,-0.458333 6.7448,-1.114584 10.07813,-2.03125 3.33333,-0.916666 6.67188,-2.062501 9.92187,-3.4375 3.25,-1.374999 6.44272,-3.010419 9.60938,-4.84375 l 40,-22.968755 V -120 H 440 v -62.96875 l -240,-139.0625 v -273.98437 l 240,138.98437 V -360 h 80 v -97.03125 L 760,-596.01562 V -480 h 40 v 120 h 40 v -278.98437 c 0,-3.66667 -0.1875,-7.28126 -0.625,-10.78125 -0.4375,-3.5 -1.15625,-6.90105 -2.03125,-10.23438 -0.875,-3.33333 -1.96875,-6.59896 -3.28125,-9.76562 -1.3125,-3.16667 -2.78125,-6.21876 -4.53125,-9.21875 -1.75,-3 -3.67709,-5.88542 -5.78125,-8.59375 -2.10416,-2.70834 -4.41667,-5.23959 -6.875,-7.65625 -2.45833,-2.41667 -5.07813,-4.67188 -7.89063,-6.79688 -2.81249,-2.125 -5.81771,-4.10417 -8.98437,-5.9375 L 520,-868.98437 c -3.16666,-1.83334 -6.35938,-3.46876 -9.60938,-4.84375 -3.24999,-1.375 -6.58854,-2.52084 -9.92187,-3.4375 -3.33333,-0.91667 -6.66146,-1.57292 -10.07813,-2.03125 C 486.97396,-879.75521 483.5,-880 480,-880 Z m 0,80 237.03125,137.03125 L 480,-526.01562 242.96875,-662.96875 Z"
     style=""
     id="path4" />
  <path
     d="M 640,-80 V -200 H 520 v -80 h 120 v -120 h 80 v 120 h 120 v 80 H 720 v 120 z"
     id="path1-8"
     inkscape:label="plus"
     style="display:inline" />
</svg>
